<svg xmlns="http://www.w3.org/2000/svg" viewBox="0 0 128 128" role="img" aria-label="SmartCon logo">
  <defs>
    <linearGradient id="smartconGradient" x1="0%" y1="0%" x2="100%" y2="100%">
      <stop offset="0%" stop-color="#4f46e5" />
      <stop offset="100%" stop-color="#06b6d4" />
    </linearGradient>
  </defs>
  <rect x="8" y="8" width="112" height="112" rx="28" fill="#020617" />
  <rect x="14" y="14" width="100" height="100" rx="24" fill="url(#smartconGradient)" opacity="0.18" />
  <path d="M49 42c-10.2 0-18 6-18 15 0 19.8 32 11.8 32 24.6 0 3.8-3.4 6.4-8.8 6.4-5.8 0-11-2.6-15.2-7l-7.6 8.2C37.2 95.2 45 99 53.6 99c11.6 0 20-6.8 20-16.6 0-20.2-32-12.2-32-24.8 0-3.4 2.8-5.6 7.2-5.6 4.8 0 9.4 2 13.8 5.6l7-8.6C63.8 44.4 56.8 42 49 42z" fill="#e2e8f0"/>
  <circle cx="90" cy="73" r="15" fill="none" stroke="#e2e8f0" stroke-width="8" />
</svg>
